HIERARCHY
ROOT hips
{
  OFFSET 0 10.074487846421558 1.314567655973056
  CHANNELS 6 Xposition Yposition Zposition Yrotation Xrotation Zrotation
  JOINT spine
  {
    OFFSET -7.042773748992335e-31 0.5690686926897363 0
    CHANNELS 3 Yrotation Xrotation Zrotation
    JOINT chest
    {
      OFFSET 0 1.2435964857087873 0
      CHANNELS 3 Yrotation Xrotation Zrotation
      JOINT upperChest
      {
        OFFSET 0 1.194994586872362 0
        CHANNELS 3 Yrotation Xrotation Zrotation
        JOINT neck
        {
          OFFSET 0 1.515103653293861 0
          CHANNELS 3 Yrotation Xrotation Zrotation
          JOINT head
          {
            OFFSET 0 0.8111851616465653 0
            CHANNELS 3 Yrotation Xrotation Zrotation
            JOINT leftEye
            {
              OFFSET 0.27141371691966987 0.7490044407698551 0.18219031050045686
              CHANNELS 3 Yrotation Xrotation Zrotation
              End Site
              {
                OFFSET 0.27141371691966987 0.7490044407698551 0.18219031050045686
              }
            }
            JOINT rightEye
            {
              OFFSET -0.2714136877644943 0.7490044019380786 0.18219040411850668
              CHANNELS 3 Yrotation Xrotation Zrotation
              End Site
              {
                OFFSET -0.2714136877644943 0.7490044019380786 0.18219040411850668
              }
            }
          }
        }
        JOINT leftShoulder
        {
          OFFSET 0.4137993136083964 1.1593397335613034 0
          CHANNELS 3 Yrotation Xrotation Zrotation
          JOINT leftUpperArm
          {
            OFFSET 1.0096991868951026 0 0
            CHANNELS 3 Yrotation Xrotation Zrotation
            JOINT leftLowerArm
            {
              OFFSET 2.418380967671622 0 0
              CHANNELS 3 Yrotation Xrotation Zrotation
              JOINT leftHand
              {
                OFFSET 2.361538296260114 0 0
                CHANNELS 3 Yrotation Xrotation Zrotation
                JOINT leftIndexProximal
                {
                  OFFSET 0.7243699271447109 0.08118285989887508 0.2022042461579805
                  CHANNELS 3 Yrotation Xrotation Zrotation
                  JOINT leftIndexIntermediate
                  {
                    OFFSET 0.36553107045252053 -0.010567764853200323 -0.014102670024158437
                    CHANNELS 3 Yrotation Xrotation Zrotation
                    JOINT leftIndexDistal
                    {
                      OFFSET 0.22505120770060527 -0.007821041598631284 -0.007511611613336286
                      CHANNELS 3 Yrotation Xrotation Zrotation
                      End Site
                      {
                        OFFSET 0.22505120770060527 -0.007821041598631284 -0.007511611613336286
                      }
                    }
                  }
                }
                JOINT leftLittleProximal
                {
                  OFFSET 0.6721063881632002 0.08118279568569564 -0.3209324945517917
                  CHANNELS 3 Yrotation Xrotation Zrotation
                  JOINT leftLittleIntermediate
                  {
                    OFFSET 0.34587329423120616 5.3042709780015684e-8 -5.929537746918179e-8
                    CHANNELS 3 Yrotation Xrotation Zrotation
                    JOINT leftLittleDistal
                    {
                      OFFSET 0.1992782500022232 0.0030983716482184676 0.0038310952896712935
                      CHANNELS 3 Yrotation Xrotation Zrotation
                      End Site
                      {
                        OFFSET 0.1992782500022232 0.0030983716482184676 0.0038310952896712935
                      }
                    }
                  }
                }
                JOINT leftMiddleProximal
                {
                  OFFSET 0.7301229696860206 0.08118412848995638 0.022516891543707507
                  CHANNELS 3 Yrotation Xrotation Zrotation
                  JOINT leftMiddleIntermediate
                  {
                    OFFSET 0.4076277831942017 -0.000001240188283180288 -1.6203245635504349e-7
                    CHANNELS 3 Yrotation Xrotation Zrotation
                    JOINT leftMiddleDistal
                    {
                      OFFSET 0.2514739255593972 0.0000013850839168938478 -1.8644847207816007e-8
                      CHANNELS 3 Yrotation Xrotation Zrotation
                      End Site
                      {
                        OFFSET 0.2514739255593972 0.0000013850839168938478 -1.8644847207816007e-8
                      }
                    }
                  }
                }
                JOINT leftRingProximal
                {
                  OFFSET 0.7218060861525873 0.08118280646416753 -0.1494689818508163
                  CHANNELS 3 Yrotation Xrotation Zrotation
                  JOINT leftRingIntermediate
                  {
                    OFFSET 0.3781267508900358 0.000001373626195677602 -1.4143108284514483e-7
                    CHANNELS 3 Yrotation Xrotation Zrotation
                    JOINT leftRingDistal
                    {
                      OFFSET 0.21814333268795483 -0.0027137626495670197 -0.004991775417842292
                      CHANNELS 3 Yrotation Xrotation Zrotation
                      End Site
                      {
                        OFFSET 0.21814333268795483 -0.0027137626495670197 -0.004991775417842292
                      }
                    }
                  }
                }
                JOINT leftThumbProximal
                {
                  OFFSET 0.10743676110519984 -0.16423092885053192 -0.07708859146227388
                  CHANNELS 3 Yrotation Xrotation Zrotation
                  JOINT leftThumbIntermediate
                  {
                    OFFSET 0.40350402100066307 -0.01735099334274981 0.315629965828783
                    CHANNELS 3 Yrotation Xrotation Zrotation
                    JOINT leftThumbDistal
                    {
                      OFFSET 0.2320014489535681 -0.01842351809041043 0.21271298411519196
                      CHANNELS 3 Yrotation Xrotation Zrotation
                      End Site
                      {
                        OFFSET 0.2320014489535681 -0.01842351809041043 0.21271298411519196
                      }
                    }
                  }
                }
              }
            }
          }
        }
        JOINT rightShoulder
        {
          OFFSET -0.41379931360839656 1.1593397335613034 0
          CHANNELS 3 Yrotation Xrotation Zrotation
          JOINT rightUpperArm
          {
            OFFSET -1.0096991868951024 0 0
            CHANNELS 3 Yrotation Xrotation Zrotation
            JOINT rightLowerArm
            {
              OFFSET -2.4183809676716232 0 0
              CHANNELS 3 Yrotation Xrotation Zrotation
              JOINT rightHand
              {
                OFFSET -2.3615382962601132 0 0
                CHANNELS 3 Yrotation Xrotation Zrotation
                JOINT rightIndexProximal
                {
                  OFFSET -0.7243699271447109 0.08118285989887508 0.2022042461579805
                  CHANNELS 3 Yrotation Xrotation Zrotation
                  JOINT rightIndexIntermediate
                  {
                    OFFSET -0.36553107045252053 -0.010567764853200323 -0.014102670024158437
                    CHANNELS 3 Yrotation Xrotation Zrotation
                    JOINT rightIndexDistal
                    {
                      OFFSET -0.22505120770060527 -0.007821041598631284 -0.007511611613336286
                      CHANNELS 3 Yrotation Xrotation Zrotation
                      End Site
                      {
                        OFFSET -0.22505120770060527 -0.007821041598631284 -0.007511611613336286
                      }
                    }
                  }
                }
                JOINT rightLittleProximal
                {
                  OFFSET -0.6721063881632002 0.08118279568569564 -0.3209324945517917
                  CHANNELS 3 Yrotation Xrotation Zrotation
                  JOINT rightLittleIntermediate
                  {
                    OFFSET -0.34587329423120616 5.3042709780015684e-8 -5.929537746918179e-8
                    CHANNELS 3 Yrotation Xrotation Zrotation
                    JOINT rightLittleDistal
                    {
                      OFFSET -0.1992782500022232 0.0030983716482184676 0.0038310952896712935
                      CHANNELS 3 Yrotation Xrotation Zrotation
                      End Site
                      {
                        OFFSET -0.1992782500022232 0.0030983716482184676 0.0038310952896712935
                      }
                    }
                  }
                }
                JOINT rightMiddleProximal
                {
                  OFFSET -0.7301229696860206 0.08118412848995638 0.022516891543707507
                  CHANNELS 3 Yrotation Xrotation Zrotation
                  JOINT rightMiddleIntermediate
                  {
                    OFFSET -0.4076277831942017 -0.000001240188283180288 -1.6203245635504349e-7
                    CHANNELS 3 Yrotation Xrotation Zrotation
                    JOINT rightMiddleDistal
                    {
                      OFFSET -0.2514739255593972 0.0000013850839168938478 -1.8644847207816007e-8
                      CHANNELS 3 Yrotation Xrotation Zrotation
                      End Site
                      {
                        OFFSET -0.2514739255593972 0.0000013850839168938478 -1.8644847207816007e-8
                      }
                    }
                  }
                }
                JOINT rightRingProximal
                {
                  OFFSET -0.7218060861525873 0.08118280646416753 -0.1494689818508163
                  CHANNELS 3 Yrotation Xrotation Zrotation
                  JOINT rightRingIntermediate
                  {
                    OFFSET -0.3781267508900358 0.000001373626195677602 -1.4143108284514483e-7
                    CHANNELS 3 Yrotation Xrotation Zrotation
                    JOINT rightRingDistal
                    {
                      OFFSET -0.21814333268795483 -0.0027137626495670197 -0.004991775417842292
                      CHANNELS 3 Yrotation Xrotation Zrotation
                      End Site
                      {
                        OFFSET -0.21814333268795483 -0.0027137626495670197 -0.004991775417842292
                      }
                    }
                  }
                }
                JOINT rightThumbProximal
                {
                  OFFSET -0.10743676110519984 -0.16423092885053192 -0.07708859146227388
                  CHANNELS 3 Yrotation Xrotation Zrotation
                  JOINT rightThumbIntermediate
                  {
                    OFFSET -0.40350402100066307 -0.01735099334274981 0.315629965828783
                    CHANNELS 3 Yrotation Xrotation Zrotation
                    JOINT rightThumbDistal
                    {
                      OFFSET -0.2320014489535681 -0.01842351809041043 0.21271298411519196
                      CHANNELS 3 Yrotation Xrotation Zrotation
                      End Site
                      {
                        OFFSET -0.2320014489535681 -0.01842351809041043 0.21271298411519196
                      }
                    }
                  }
                }
              }
            }
          }
        }
      }
    }
  }
  JOINT leftUpperLeg
  {
    OFFSET 0.8487163290887698 -0.43932186100277326 0
    CHANNELS 3 Yrotation Xrotation Zrotation
    JOINT leftLowerLeg
    {
      OFFSET 0 -3.882816707004296 0
      CHANNELS 3 Yrotation Xrotation Zrotation
      JOINT leftFoot
      {
        OFFSET 0 -4.570431027442807 0.004629272230691511
        CHANNELS 3 Yrotation Xrotation Zrotation
        JOINT leftToes
        {
          OFFSET 0 -0.698875637876343 1.214565366696912
          CHANNELS 3 Yrotation Xrotation Zrotation
          End Site
          {
            OFFSET 0 -0.698875637876343 1.214565366696912
          }
        }
      }
    }
  }
  JOINT rightUpperLeg
  {
    OFFSET -0.8487163290887698 -0.43932186100277326 0
    CHANNELS 3 Yrotation Xrotation Zrotation
    JOINT rightLowerLeg
    {
      OFFSET 0 -3.882816707004296 0
      CHANNELS 3 Yrotation Xrotation Zrotation
      JOINT rightFoot
      {
        OFFSET 0 -4.570431027442807 0.004629272230691511
        CHANNELS 3 Yrotation Xrotation Zrotation
        JOINT rightToes
        {
          OFFSET 0 -0.698875637876343 1.214565366696912
          CHANNELS 3 Yrotation Xrotation Zrotation
          End Site
          {
            OFFSET 0 -0.698875637876343 1.214565366696912
          }
        }
      }
    }
  }
}
MOTION
Frames: 4
Frame Time: 0.03333333333333333
-0.44731998443603516 -0.1299773865216558 0.7535083889961243 3.3951751199785476 -1.5464426905561965 -1.1113380813154163 0.6100701726375387 0.10834631483951909 0.26051378983230195 0.644478744083909 0.005965325231652011 0.1755747987823729 0 0 0 -1.4141201908199148 3.6695799971026317 0.5038199128818793 -6.433727204074877 12.469258140316805 -0.47745972301621115 0 0 0 0 0 0 3.3171388318229633 0.26294210178931615 -2.7237928914064877 3.935710046652495 -2.6077129710218485 -72.06970313118737 -16.75525296947477 -2.1417974483853124 0.5333652080120825 -3.477607789398402 35.60107603238729 -2.782236282327879 5.057562086927113 1.3596403659300778 -9.894511369158142 1.7306883437481204 0.2478580127125315 -16.30154946242389 0.8418031162110128 0.05774752498169325 -7.84794831257463 7.197267013673571 5.921969684036367 -57.830797748698004 -1.6049464079146174 0.5152391160453337 -23.96537908199509 1.2037768939972857 0.11865447791870949 -11.25941155494317 3.718264813945811 1.254163757149748 -22.398121720237043 1.4107268847624452 0.16355479806981982 -13.227188735150353 1.0838212298057142 0.09599735318248229 -10.124997401240826 5.838944252813607 2.722000847197161 -26.149710995234784 1.8977964232253595 0.29932354296694275 -17.925895341742365 1.5245330152243204 0.19145565469035639 -14.315745790701449 5.494311632173449 -5.18299436042399 8.582649435050806 26.808539230694368 13.44269832902679 0.37179240170662237 1.4795585303168242 1.4584483447212109 -0.17342842119108193 4.52452959410766 0.6648480314114795 0.051088554943672794 -4.5921983306123915 1.0418588049784387 74.21485214833336 7.043306663185821 -0.9192729784247452 -0.1476012590096458 41.39466788097059 37.08432294184787 14.603932262471838 8.455703751269837 0.6600532383008866 -11.206309566906915 -0.7671776155429912 0.04739570524728464 7.070539215463901 -0.5402319317056717 0.023463738172399322 4.972450958002413 -7.799134964680521 3.056790312482881 17.14415253888929 -3.827383770069004 1.3128307008904476 37.85327656891094 -2.040897412963691 0.34357911727430673 19.110131829783647 -2.6742608720610996 0.5963521292000663 9.989048563358777 -2.5427522339076623 0.542172552642719 24.06947687396625 -1.434167182616654 0.14384332137344052 13.225091247114747 -6.032424190353274 2.261013985710275 17.795028909394862 -3.2918359919754825 0.9398888825496626 31.862401972671933 -1.7855995487287142 0.09786003648007084 16.040328178846348 -7.826336607495246 -11.683173902825281 -5.7967474289880325 -22.006643891159154 15.066692872704197 -1.2245879241250983 -5.7219730964253035 -1.9914747415982625 0.5280776269301825 13.643532713343218 -6.012484601033904 5.604262866112523 -2.240593509054051 16.165026695284688 -0.43684836771738117 0.5503639654837866 -8.988136741821732 -4.2556735002681245 0.000010781799771086535 -0.18353519417959893 -9.930894745417921e-7 -5.128899249106108 -2.9349736505436494 0.09022354930870018 -10.483536992396758 13.915686909992347 -3.8780984255652315 -14.296086469728442 -7.976435401670953 6.346386186113046 0.000009173267813074507 -0.3483069483389699 -1.1849217653486953e-7
-0.44570985436439514 -0.13074604802067924 0.7552995681762695 3.415018728528155 -1.5238503476178444 -1.1117016746972048 0.6125588299887702 0.1126554251687666 0.2599635417209069 0.6470651133119156 0.010910585267273828 0.17551877014897 0 0 0 -1.420035401948563 3.6541442717245345 0.5169953220734396 -6.449107855551709 12.449407420468795 -0.46976158347335306 0 0 0 0 0 0 3.2974718950488073 0.2635310784191509 -2.718287129545983 3.909661737932279 -2.622304429857622 -72.07696604921388 -16.72962286453873 -2.138680067146988 0.53202841163804 -3.5352254197938637 35.59837538518899 -2.7955159991021543 5.0665153778925625 1.3650426516267788 -9.936079421867685 1.733959503468713 0.2488250271721805 -16.333322317639166 0.8420345675399203 0.057751593748792907 -7.850136777396736 7.195345692787282 5.90994555718866 -57.76354161072032 -1.6044076970459875 0.5154946715079106 -23.971000825726325 1.2047807160555388 0.11883855991631564 -11.268890791052659 3.7300690579807663 1.262576310205377 -22.503189519436763 1.4118209144191887 0.16382185688817508 -13.23749443692185 1.0835961290810925 0.09596595694660938 -10.122926099572135 5.832067986190066 2.7195665557284086 -26.186205324545526 1.8972282888647842 0.29913120114968716 -17.920344647524658 1.524456842472681 0.19142349125674107 -14.314991206246107 5.510802563379059 -5.168742260333536 8.577615363341756 26.842712948621394 13.459409159133623 0.377982904668444 1.4883708333579109 1.4608251680156725 -0.1747843243680691 4.510753314821183 0.6639984161468653 0.06787264002715739 -4.560384971013425 1.026316312581608 74.20610943133093 7.055642333084177 -0.9208386809881867 -0.1480057088130649 41.41733376128157 37.09861826160465 14.580312316301837 8.339221345396394 0.6240389108885586 -11.015819227080199 -0.7664361488711772 0.04730737633031947 7.0637105097093995 -0.5402379612144564 0.023461687114444366 4.972455636085405 -7.789663659695286 3.076412516284146 17.36385663594861 -3.830449039717496 1.3152243511697816 37.88869106641033 -2.0417776873863325 0.3439062251893558 19.119031414223752 -2.7135407297199308 0.6143261348879423 10.334826954907307 -2.554692242788559 0.5475459666896895 24.18956227573721 -1.4347322273103222 0.14274529832932895 13.226723147401591 -6.0519180880344425 2.2875204171850725 18.030549422632628 -3.2945116655670867 0.9415289893343846 31.891140639637502 -1.7835168210968184 0.0968311110192486 16.01912366127355 -7.890585370121984 -11.62715885769439 -5.829156707493482 -22.1504811442758 15.134733409814585 -1.2601358087052381 -5.769914118905078 -1.9599481235397291 0.5239203713043404 13.610414252423292 -6.048087174528542 5.582576569280383 -2.2300195512526173 16.219551570049877 -0.4168452349872589 0.550758196224495 -9.027136560373386 -4.259072265918299 0.000019001159406059397 -0.16232016968392657 6.083692092244857e-7 -5.142169581569935 -2.9622964304764348 0.0700162639502682 -10.428160694712679 13.962182265397551 -3.858971961645908 -14.29684258673194 -8.011831905188266 6.360899022595893 -0.00003053635914341506 -0.3567166712071587 0.0000012482303712920471
-0.4411084055900574 -0.13245884709294486 0.7596331238746643 3.45907332717357 -1.4785662308671315 -1.1089770581699163 0.6153432740610543 0.12193116167344849 0.26121263093581704 0.6499129727816411 0.021262334351048597 0.1772682051591182 0 0 0 -1.4284094335025044 3.61754873813656 0.53585254333647 -6.469775633819286 12.368326636545012 -0.4417990644004283 0 0 0 0 0 0 3.265387220573506 0.26407528484565707 -2.702758185222893 3.8531260700618497 -2.656433524968591 -72.10111904320144 -16.66367262412259 -2.130616342215238 0.5287263481448105 -3.6337553747748172 35.583151823657516 -2.832730617804783 5.085427594665736 1.3754813119996845 -10.006052865721196 1.737308212199058 0.24982259108134838 -16.365595862906936 0.8422943504340797 0.05779470266973711 -7.852554795141017 7.187985798026842 5.877419020112667 -57.620407486804346 -1.6031555375558042 0.5160384939933172 -23.983695004239586 1.2071092041777252 0.11931856850516614 -11.290990919769028 3.7562632795772064 1.2813841354450954 -22.731281182055074 1.4131697808147536 0.16412908325686776 -13.250350678290088 1.0834336628807917 0.09591966634182703 -10.121517936135861 5.816365500722169 2.714346478685791 -26.27529980135696 1.8960218348570066 0.2987547618891308 -17.90849104230187 1.5242375307431266 0.19138174949665585 -14.313046362734148 5.551072546291 -5.132998973372279 8.57653814916999 26.929234439206088 13.501719921230798 0.3936246309398605 1.5087817584404324 1.4663736253959943 -0.17780482154574337 4.505062152183177 0.663795471199484 0.09521622209738678 -4.524522214925823 1.0111099079472743 74.18240723060774 7.081000851747088 -0.924111085888861 -0.14871890805674276 41.464701983850695 37.12444572748209 14.563626668436424 8.04686907390357 0.542979138099529 -10.585362273814086 -0.7643739437225757 0.04706681551874566 7.044576065162884 -0.5402315581962776 0.023445550457672933 4.972459888888067 -7.763301717531342 3.11872204114136 17.866769608538338 -3.838178504799996 1.321248571579459 37.978608687668284 -2.044152024504687 0.3446901636330393 19.14215149722755 -2.7964526105501157 0.6544363721817364 11.138565352601672 -2.585631966400863 0.5615307403569079 24.501766224434128 -1.4368367896075795 0.1415326825561574 13.240690286679975 -6.099237966004042 2.3490631974767195 18.5554232865113 -3.3016027686244946 0.945966759690153 31.967912980852095 -1.7793706744522704 0.0938819859974733 15.974367514353654 -8.041784533991414 -11.493497307865105 -5.926305173277963 -22.481923608079207 15.2911092356061 -1.3429166403058432 -5.884073828886361 -1.8846865971048494 0.5138448525773668 13.528746513476737 -6.1176563127841606 5.524298867740854 -2.1779413230116074 16.344013455692437 -0.36412491328699065 0.5505810115003628 -9.118656117539823 -4.263526459123862 -0.000001625772548575358 -0.08304925969463076 0.0000013017458393158947 -5.177711111635072 -3.017741054856606 0.009242498995799701 -10.323815459536123 14.068649829272783 -3.8110943146531358 -14.270840454681172 -8.093951668049739 6.394359008180506 -0.0000381711228626409 -0.3855278142331728 0.0000013468448840279694
-0.43417298793792725 -0.13475815586980033 0.765684187412262 3.5128748704759265 -1.439965810582842 -1.098574482034604 0.6092074756333018 0.13733506531320178 0.26956263026679367 0.6435068224687761 0.037739295848129004 0.18436490088419102 0 0 0 -1.4315140935614799 3.5703053234836495 0.5317627246442674 -6.484967859392468 12.213928315767538 -0.43205860548225944 0 0 0 0 0 0 3.255620059723766 0.2641653322416607 -2.696609003318084 3.8046959705141945 -2.6871107297877987 -72.1336301935787 -16.606781212346124 -2.123660978189765 0.5259154607301312 -3.693533533032568 35.546736206022956 -2.889528061881574 5.113166212620223 1.38651762104266 -10.03877312147436 1.725891795668993 0.2464826506119113 -16.255122863962637 0.8416232059304666 0.05772306568833147 -7.846372853485452 7.167423537871894 5.812220167562426 -57.440318189258626 -1.6001991120355585 0.5173639247536034 -24.013593047400782 1.208577486175622 0.1196074781309213 -11.304917838873589 3.776735312512688 1.2969311266264427 -22.956721973241233 1.4143749587118055 0.16441271069591468 -13.261986649114682 1.0833081158443174 0.09591638464477567 -10.120163083239879 5.792806354286785 2.7042222132184506 -26.37233060899847 1.8962990754686904 0.29883616497712645 -17.91118080838867 1.5239633831621875 0.19130526962776995 -14.310392503087835 5.585099443113965 -5.096760534678761 8.651859591405806 27.04604694826115 13.55876160037852 0.4149623882726392 1.5358808718117478 1.4737162542527267 -0.18184451266448756 4.54790286037921 0.6667700056570285 0.0906334668733604 -4.536320882765617 1.0285471548966958 74.16658707164541 7.118165992610179 -0.9289063989135568 -0.1497904148942885 41.5025832876418 37.0932063588437 14.560692607277929 7.688903695823485 0.45340042646356715 -10.088073918878687 -0.759987197179007 0.046504491993402355 7.0035656604003105 -0.5402030114067329 0.023454483398700352 4.972480302340079 -7.745755739493242 3.169217006330515 18.409886483079447 -3.847688316400996 1.3286604547512233 38.089470171266704 -2.0477893782513537 0.34595945461402616 19.177283028534053 -2.8656488239024043 0.6911117876145106 11.936179740806066 -2.6244254113791623 0.5793670626364885 24.893927813953333 -1.4380969967347421 0.14177069936788064 13.25239669086451 -6.139624078553906 2.409840467500888 19.105444887376006 -3.3101878025566394 0.9513382657854119 32.06076624645958 -1.772436713351472 0.09096766588457349 15.906277188075451 -8.21604830254629 -11.338877102561073 -6.053684285341222 -22.855076632968263 15.466528118063524 -1.437512018124553 -6.003752264870975 -1.8056344002055915 0.5028332304629708 13.415371194435433 -6.181837985024159 5.439911502170875 -2.0666144883490243 16.510372914367665 -0.285441430904647 0.5493180206304867 -9.24386706931227 -4.267268527236153 -0.000002616592974231377 0.000010740140202131984 -0.0000021008114288692974 -5.234770207861033 -3.0744507071914753 -0.09248275493309709 -10.232388689188488 14.21952910092601 -3.747845663418818 -14.197200360928194 -8.208638342367674 6.441644630462742 -0.000001555981165061583 -0.43150861709218385 -0.000002541259364418161
